<svg width="29" height="20" viewBox="0 0 29 20" fill="none" xmlns="http://www.w3.org/2000/svg">
<path fill-rule="evenodd" clip-rule="evenodd" d="M16.6942 1.0114C17.2402 0.388352 18.1879 0.325881 18.8109 0.871867L28.2253 9.12187C28.5564 9.41201 28.7433 9.83295 28.7366 10.2731C28.7298 10.7133 28.53 11.1283 28.1901 11.4081L18.7756 19.1581C18.1361 19.6846 17.1907 19.5929 16.6642 18.9533C16.1377 18.3137 16.2294 17.3684 16.869 16.8419L24.92 10.2143L16.8337 3.12813C16.2107 2.58214 16.1482 1.63445 16.6942 1.0114Z" fill="#3F3F3E"/>
<path fill-rule="evenodd" clip-rule="evenodd" d="M27.8141 10C27.8141 10.8284 27.1425 11.5 26.3141 11.5L1.99995 11.5C1.17152 11.5 0.499948 10.8284 0.499948 10C0.499948 9.17157 1.17152 8.5 1.99995 8.5L26.3141 8.5C27.1425 8.5 27.8141 9.17157 27.8141 10Z" fill="#3F3F3E"/>
</svg>
