<svg width="10" height="11" viewBox="0 0 10 11" fill="none" xmlns="http://www.w3.org/2000/svg">
<path d="M9.41795 1.51588H8.17835C8.16178 1.51013 8.14454 1.5064 8.12707 1.50468H6.80723V0.410051C6.80731 0.327789 6.77506 0.248811 6.71758 0.190058C6.66003 0.131311 6.58179 0.0974192 6.49961 0.0957031H3.37821C3.29483 0.0957031 3.21488 0.128773 3.15598 0.187744C3.09701 0.246715 3.06386 0.326663 3.06386 0.410049V1.50468H1.75073C1.73326 1.5064 1.71602 1.51013 1.69945 1.51588H0.459848C0.347503 1.51588 0.243735 1.57575 0.187609 1.67301C0.131474 1.77028 0.131474 1.89008 0.187609 1.98735C0.243744 2.08462 0.347505 2.14456 0.459848 2.14456H1.46977L2.28581 9.73595C2.29455 9.81321 2.33142 9.8845 2.38943 9.93638C2.44735 9.98818 2.52237 10.0168 2.60015 10.0168H7.28206C7.35903 10.0157 7.43293 9.98654 7.49004 9.93488C7.54707 9.88315 7.58327 9.81246 7.59193 9.73595L8.4079 2.15564H9.4179C9.53024 2.15564 9.63401 2.09577 9.69014 1.99851C9.74626 1.90124 9.74627 1.78136 9.69014 1.68417C9.634 1.5869 9.53024 1.52696 9.4179 1.52696L9.41795 1.51588ZM3.69933 0.724388H6.17845V1.50468H3.69933V0.724388ZM6.99673 9.38364H2.88105L2.10075 2.15572H7.77695L6.99673 9.38364Z" fill="#E41D1D"/>
<path d="M4.93934 8.6476C5.02272 8.6476 5.10267 8.61446 5.16164 8.55556C5.22061 8.49659 5.25368 8.41664 5.25368 8.33326V3.20551C5.25368 3.09316 5.19382 2.9894 5.09655 2.93327C4.99928 2.87706 4.8794 2.87706 4.78213 2.93327C4.68487 2.98941 4.625 3.09317 4.625 3.20551V8.33326C4.625 8.41664 4.65807 8.49659 4.71704 8.55556C4.77601 8.61446 4.85596 8.6476 4.93935 8.6476H4.93934Z" fill="#E41D1D"/>
<path d="M3.70182 8.64555H3.71518C3.79819 8.64212 3.87642 8.60591 3.93286 8.54492C3.98922 8.48394 4.01923 8.40309 4.01617 8.32008L3.82664 3.19233L3.82672 3.19225C3.825 3.10828 3.78909 3.02855 3.72721 2.97167C3.66525 2.91486 3.58284 2.88582 3.49894 2.89127C3.41593 2.89478 3.3377 2.93099 3.28134 2.99197C3.22491 3.05296 3.19497 3.13381 3.19796 3.21682L3.38749 8.34457C3.39145 8.42541 3.42623 8.5017 3.48475 8.55768C3.5432 8.61359 3.62091 8.64509 3.70182 8.64554L3.70182 8.64555Z" fill="#E41D1D"/>
<path d="M6.1652 8.64532H6.17632C6.25918 8.64719 6.33943 8.61644 6.39989 8.55978C6.46028 8.50304 6.49611 8.42489 6.49962 8.3421L6.68915 3.21435H6.68908C6.69214 3.13134 6.66213 3.0505 6.60577 2.9895C6.54933 2.92851 6.4711 2.89231 6.38809 2.8888C6.30321 2.88007 6.21856 2.90746 6.15489 2.96435C6.09122 3.02115 6.05449 3.10222 6.05367 3.18763L5.8619 8.31537H5.86197C5.85772 8.3995 5.88743 8.48184 5.94446 8.54387C6.00142 8.6059 6.08099 8.64248 6.1652 8.64532L6.1652 8.64532Z" fill="#E41D1D"/>
</svg>
