<svg width="21" height="21" viewBox="0 0 21 21" fill="none" xmlns="http://www.w3.org/2000/svg">
<path d="M10.1062 20.0601C7.47501 20.0601 4.9513 19.0147 3.0909 17.1542C1.23037 15.2935 0.185059 12.7701 0.185059 10.1389C0.185059 7.50778 1.23037 4.98408 3.0909 3.12367C4.95157 1.26315 7.47501 0.217833 10.1062 0.217833C12.7373 0.217833 15.261 1.26315 17.1214 3.12367C18.982 4.98435 20.0273 7.50778 20.0273 10.1389C20.0241 12.7692 18.9779 15.2911 17.118 17.1507C15.2581 19.0106 12.7362 20.0569 10.1062 20.0601ZM13.9321 7.58726V7.5871C14.1061 7.41905 14.2053 7.1882 14.2074 6.9463C14.2095 6.70441 14.1144 6.47175 13.9433 6.30067C13.7722 6.12959 13.5396 6.03447 13.2977 6.03659C13.0558 6.0387 12.8249 6.1379 12.6569 6.31184L10.1062 8.86346L7.55549 6.31184C7.32643 6.09064 6.99771 6.00654 6.69045 6.09079C6.38334 6.17504 6.14343 6.41497 6.05916 6.72208C5.97491 7.02935 6.05901 7.35805 6.28022 7.58712L8.8309 10.1387L6.28022 12.6903C6.10627 12.8584 6.00707 13.0893 6.00496 13.3311C6.00284 13.573 6.09797 13.8057 6.26904 13.9768C6.44011 14.1479 6.67278 14.243 6.91467 14.2409C7.15656 14.2387 7.38741 14.1395 7.55548 13.9656L10.1062 11.414L12.6568 13.9656C12.8249 14.1395 13.0558 14.2387 13.2977 14.2409C13.5395 14.243 13.7722 14.1479 13.9433 13.9768C14.1144 13.8057 14.2095 13.573 14.2074 13.3311C14.2053 13.0893 14.1061 12.8584 13.9321 12.6903L11.3814 10.1387L13.9321 7.58726Z" fill="#E6E6E6"/>
</svg>
