<svg width="19" height="19" viewBox="0 0 19 19" fill="none" xmlns="http://www.w3.org/2000/svg">
<path d="M11.1112 2.12037L10.3635 2.17902L10.3641 2.18702L10.3649 2.195L11.1112 2.12037ZM11.1112 2.12034L11.8589 2.06169L11.8583 2.05369L11.8575 2.0457L11.1112 2.12034ZM11.2167 2.82881L10.5156 3.09509L10.5156 3.09509L11.2167 2.82881ZM12.5615 3.38585L12.869 4.06992L12.869 4.06992L12.5615 3.38585ZM13.137 2.95952L13.6119 3.53999L13.6216 3.53213L13.6309 3.52395L13.137 2.95952ZM13.137 2.95951L12.6621 2.37905L12.6525 2.38691L12.6431 2.39508L13.137 2.95951ZM13.4565 2.71894L13.0929 2.06297L13.0929 2.06297L13.4565 2.71894ZM14.5107 2.77152L14.9378 2.15499L14.9378 2.15499L14.5107 2.77152ZM14.8046 3.04268L15.3557 2.53396L15.3455 2.52295L15.3349 2.51234L14.8046 3.04268ZM14.8046 3.04268L14.2535 3.55139L14.2637 3.56241L14.2743 3.57301L14.8046 3.04268ZM15.5399 3.77797L15.0096 4.3083V4.3083L15.5399 3.77797ZM15.8111 4.07191L15.1946 4.49897L15.1946 4.49897L15.8111 4.07191ZM15.8637 5.12612L16.5196 5.48972L16.5196 5.48972L15.8637 5.12612ZM15.6231 5.44559L16.2035 5.92052V5.92051L15.6231 5.44559ZM15.1967 6.02114L14.5126 5.71367L14.5126 5.71367L15.1967 6.02114ZM15.7537 7.36595L15.4874 8.06708L15.4874 8.06708L15.7537 7.36595ZM16.4623 7.47144L16.5856 6.73165L16.5614 6.72761L16.5369 6.72516L16.4623 7.47144ZM16.4623 7.47144L16.339 8.21124L16.3632 8.21528L16.3877 8.21772L16.4623 7.47144ZM16.8585 7.52723L16.6517 8.24817V8.24817L16.8585 7.52723ZM17.5667 8.30979L16.8287 8.4438V8.44381L17.5667 8.30979ZM17.5667 10.1488L16.8287 10.0149L16.8287 10.0149L17.5667 10.1488ZM16.8584 10.9315L16.6517 10.2106L16.6517 10.2106L16.8584 10.9315ZM16.4624 10.9873L16.3878 10.241L16.372 10.2426L16.3564 10.2448L16.4624 10.9873ZM16.4624 10.9873L16.3563 10.2448L16.3477 10.246L16.3391 10.2475L16.4624 10.9873ZM16.4624 10.9873L16.537 11.7336L16.5615 11.7311L16.5857 11.7271L16.4624 10.9873ZM15.7543 11.0927L15.4881 10.3915H15.4881L15.7543 11.0927ZM15.1972 12.4377L14.5132 12.7453V12.7453L15.1972 12.4377ZM15.6233 13.0128L16.2233 12.5628L16.2138 12.5502L16.2037 12.5379L15.6233 13.0128ZM15.6233 13.0129L15.0233 13.4629L15.0328 13.4755L15.0428 13.4878L15.6233 13.0129ZM15.8637 13.3321L15.2078 13.6958V13.6958L15.8637 13.3321ZM15.8111 14.3865L15.1946 13.9594L15.1946 13.9594L15.8111 14.3865ZM14.5108 15.6868L14.0837 15.0703L14.0837 15.0703L14.5108 15.6868ZM13.4566 15.7394L13.093 16.3954L13.093 16.3954L13.4566 15.7394ZM13.1371 15.4988L13.6121 14.9183L13.5998 14.9083L13.5871 14.8988L13.1371 15.4988ZM13.1371 15.4988L12.6622 16.0793L12.6744 16.0893L12.6871 16.0988L13.1371 15.4988ZM12.5615 15.0724L12.2541 15.7565L12.5615 15.0724ZM11.2167 15.6294L11.9179 15.8957V15.8957L11.2167 15.6294ZM11.1112 16.3381L11.851 16.4614L11.8551 16.4372L11.8575 16.4127L11.1112 16.3381ZM11.1112 16.3381L11.8467 16.4852L11.849 16.4734L11.851 16.4614L11.1112 16.3381ZM11.1112 16.3381L10.3758 16.1911L10.3686 16.227L10.365 16.2635L11.1112 16.3381ZM11.0554 16.7345L11.7763 16.9413L11.7763 16.9413L11.0554 16.7345ZM10.2729 17.4426L10.1389 16.7047L10.1389 16.7047L10.2729 17.4426ZM8.43375 17.4427L8.29975 18.1806L8.29976 18.1806L8.43375 17.4427ZM7.65116 16.7344L6.93023 16.9412L6.93023 16.9412L7.65116 16.7344ZM7.59539 16.3383L8.34167 16.2637V16.2637L7.59539 16.3383ZM7.48988 15.6298L6.78876 15.8961V15.8961L7.48988 15.6298ZM6.14512 15.0728L5.83768 14.3887L5.83768 14.3887L6.14512 15.0728ZM5.56947 15.4992L6.03802 16.0849L6.0444 16.0797L5.56947 15.4992ZM5.56945 15.4992L5.1009 14.9135L5.09452 14.9187L5.56945 15.4992ZM5.24993 15.7398L4.88636 15.0839H4.88636L5.24993 15.7398ZM4.19578 15.6873L4.62282 15.0707L4.62282 15.0707L4.19578 15.6873ZM3.90178 15.416L4.43211 14.8857L4.43211 14.8857L3.90178 15.416ZM3.16656 14.6808L2.63623 15.2111L2.63623 15.2111L3.16656 14.6808ZM2.89534 14.3868L3.51188 13.9598L3.51188 13.9598L2.89534 14.3868ZM2.84276 13.3327L2.18678 12.9691H2.18678L2.84276 13.3327ZM3.08341 13.0131L3.66388 13.488L3.08341 13.0131ZM3.50977 12.4376L4.19384 12.7451H4.19384L3.50977 12.4376ZM2.95272 11.0927L3.21899 10.3916L3.21899 10.3916L2.95272 11.0927ZM2.24436 10.9873L2.16973 11.7335H2.16973L2.24436 10.9873ZM1.8484 10.9315L2.05512 10.2106L2.05512 10.2106L1.8484 10.9315ZM1.1401 10.1489L0.402163 10.2828L0.402163 10.2828L1.1401 10.1489ZM1.14012 8.30976L1.87805 8.4438L1.87805 8.4438L1.14012 8.30976ZM1.84829 7.52724L2.05509 8.24817L2.05509 8.24817L1.84829 7.52724ZM2.24449 7.47144L2.31911 8.21772H2.31912L2.24449 7.47144ZM2.95327 7.36589L3.21964 8.067L3.21965 8.06699L2.95327 7.36589ZM3.51024 6.02124L4.19435 5.71384H4.19435L3.51024 6.02124ZM3.08362 5.44533L3.66409 4.97041L3.64807 4.95083L3.63077 4.93238L3.08362 5.44533ZM3.08362 5.44533L2.50315 5.92026L2.51916 5.93983L2.53646 5.95828L3.08362 5.44533ZM2.84279 5.12555L3.49882 4.76205L3.49882 4.76205L2.84279 5.12555ZM2.89536 4.07159L2.27876 3.64462L2.27876 3.64462L2.89536 4.07159ZM3.16677 3.7774L3.6971 4.30773L3.6971 4.30773L3.16677 3.7774ZM3.9019 3.04226L3.37157 2.51193L3.37157 2.51193L3.9019 3.04226ZM4.19586 2.77105L4.62292 3.3876L4.62292 3.3876L4.19586 2.77105ZM5.25004 2.71847L4.88646 3.37445L4.88646 3.37445L5.25004 2.71847ZM5.56962 2.95916L6.04455 2.37869L6.04455 2.37869L5.56962 2.95916ZM6.145 3.38544L5.83743 4.06947L5.83743 4.06947L6.145 3.38544ZM7.48999 2.82833L8.19116 3.09453L8.19116 3.09452L7.48999 2.82833ZM7.5954 2.12025L8.34168 2.19487V2.19487L7.5954 2.12025ZM7.65113 1.72444L6.93017 1.51778L6.93017 1.51778L7.65113 1.72444ZM8.43388 1.01607L8.56778 1.75402V1.75402L8.43388 1.01607ZM10.2728 1.01608L10.4068 0.278148V0.278147L10.2728 1.01608ZM11.0554 1.72435L10.3345 1.93109V1.93109L11.0554 1.72435ZM11.8589 2.06173L11.8589 2.06169L10.3635 2.17898L10.3635 2.17902L11.8589 2.06173ZM11.9178 2.56252C11.9254 2.58244 11.9177 2.57134 11.9039 2.47155C11.8906 2.37603 11.8776 2.24657 11.8575 2.04575L10.3649 2.195C10.3838 2.38394 10.4 2.54681 10.418 2.67711C10.4354 2.80315 10.461 2.95138 10.5156 3.09509L11.9178 2.56252ZM12.254 2.70178C12.1228 2.76079 11.9689 2.69706 11.9178 2.56252L10.5156 3.09509C10.8732 4.03686 11.9502 4.48294 12.869 4.06992L12.254 2.70178ZM12.6621 2.37905C12.5059 2.50685 12.4051 2.58914 12.3282 2.64734C12.2479 2.70813 12.2346 2.71052 12.254 2.70178L12.869 4.06992C13.0092 4.0069 13.1321 3.92013 13.2335 3.84334C13.3384 3.76395 13.465 3.66022 13.6119 3.53999L12.6621 2.37905ZM12.6431 2.39508L12.6431 2.39509L13.6309 3.52395L13.6309 3.52395L12.6431 2.39508ZM13.0929 2.06297C12.9404 2.1475 12.798 2.26788 12.6621 2.37905L13.612 3.53998C13.6958 3.47136 13.7453 3.43101 13.7835 3.4017C13.8193 3.37431 13.8262 3.3715 13.8201 3.3749L13.0929 2.06297ZM14.9378 2.15499C14.3904 1.77581 13.6752 1.74015 13.0929 2.06297L13.8201 3.3749C13.9033 3.32878 14.0054 3.33388 14.0836 3.38805L14.9378 2.15499ZM15.3349 2.51234C15.2108 2.38822 15.0811 2.25427 14.9378 2.15499L14.0836 3.38805C14.0779 3.38406 14.0845 3.38754 14.1173 3.41835C14.1525 3.45131 14.1976 3.49638 14.2743 3.57301L15.3349 2.51234ZM15.3557 2.53397L15.3557 2.53396L14.2535 3.55139L14.2535 3.55139L15.3557 2.53397ZM16.0702 3.24764L15.3349 2.51235L14.2743 3.57301L15.0096 4.3083L16.0702 3.24764ZM16.4276 3.64485C16.3283 3.50151 16.1944 3.37179 16.0702 3.24764L15.0096 4.3083C15.0862 4.38494 15.1313 4.43014 15.1642 4.46528C15.1951 4.49813 15.1985 4.50473 15.1946 4.49897L16.4276 3.64485ZM16.5196 5.48972C16.8424 4.90734 16.8068 4.19222 16.4276 3.64485L15.1946 4.49897C15.2487 4.57717 15.2538 4.67933 15.2077 4.76253L16.5196 5.48972ZM16.2035 5.92051C16.3147 5.78463 16.4351 5.64223 16.5196 5.48972L15.2077 4.76252C15.2111 4.7564 15.2083 4.76332 15.1809 4.79907C15.1516 4.83732 15.1112 4.88678 15.0426 4.97066L16.2035 5.92051ZM15.8808 6.32862C15.872 6.34805 15.8744 6.33474 15.9352 6.25441C15.9934 6.17752 16.0757 6.07673 16.2035 5.92052L15.0426 4.97066C14.9224 5.11762 14.8186 5.24422 14.7392 5.34911C14.6624 5.45057 14.5756 5.57345 14.5126 5.71367L15.8808 6.32862ZM16.02 6.66482C15.8855 6.61372 15.8218 6.45988 15.8808 6.32861L14.5126 5.71367C14.0996 6.63249 14.5457 7.70939 15.4874 8.06708L16.02 6.66482ZM16.5369 6.72516C16.3361 6.70508 16.2066 6.692 16.111 6.67878C16.0112 6.66497 16.0001 6.65725 16.02 6.66481L15.4874 8.06708C15.6312 8.12166 15.7794 8.14719 15.9055 8.16463C16.0358 8.18266 16.1987 8.19882 16.3877 8.21772L16.5369 6.72516ZM16.5856 6.73165L16.5856 6.73165L16.339 8.21124L16.339 8.21124L16.5856 6.73165ZM17.0652 6.8063C16.8976 6.75821 16.7117 6.74264 16.5369 6.72517L16.3877 8.21772C16.4956 8.22851 16.5591 8.23495 16.6069 8.24128C16.6515 8.24719 16.6584 8.2501 16.6517 8.24817L17.0652 6.8063ZM18.3046 8.17578C18.1856 7.52069 17.7052 6.98986 17.0652 6.8063L16.6517 8.24817C16.7431 8.27439 16.8117 8.35022 16.8287 8.4438L18.3046 8.17578ZM18.3328 8.70951C18.3328 8.53389 18.3358 8.34739 18.3046 8.17577L16.8287 8.44381C16.8275 8.43691 16.8297 8.44404 16.8311 8.48907C16.8327 8.53725 16.8328 8.6011 16.8328 8.70951H18.3328ZM18.3328 9.74935V8.70951H16.8328V9.74935H18.3328ZM18.3046 10.2828C18.3358 10.1113 18.3328 9.92486 18.3328 9.74935H16.8328C16.8328 9.8577 16.8327 9.92151 16.8311 9.96966C16.8297 10.0147 16.8275 10.0218 16.8287 10.0149L18.3046 10.2828ZM17.0651 11.6525C17.7052 11.4689 18.1857 10.938 18.3046 10.2828L16.8287 10.0149C16.8118 10.1085 16.7431 10.1843 16.6517 10.2106L17.0651 11.6525ZM16.5371 11.7335C16.7117 11.7161 16.8975 11.7005 17.0651 11.6525L16.6517 10.2106C16.6584 10.2086 16.6515 10.2115 16.6069 10.2175C16.5591 10.2238 16.4956 10.2302 16.3878 10.241L16.5371 11.7335ZM16.5685 11.7297L16.5685 11.7297L16.3564 10.2448L16.3563 10.2448L16.5685 11.7297ZM16.5857 11.7271L16.5857 11.7271L16.3391 10.2475L16.3391 10.2475L16.5857 11.7271ZM16.0205 11.7939C16.0006 11.8014 16.0117 11.7937 16.1114 11.7799C16.2069 11.7667 16.3363 11.7536 16.537 11.7336L16.3878 10.241C16.1989 10.2599 16.0361 10.276 15.9059 10.294C15.7799 10.3115 15.6318 10.337 15.4881 10.3915L16.0205 11.7939ZM15.8812 12.1301C15.8222 11.9988 15.8859 11.8449 16.0205 11.7939L15.4881 10.3915C14.5461 10.7491 14.0999 11.8263 14.5132 12.7453L15.8812 12.1301ZM16.2037 12.5379C16.076 12.3818 15.9938 12.2811 15.9356 12.2043C15.8749 12.124 15.8725 12.1107 15.8812 12.1301L14.5132 12.7453C14.5762 12.8854 14.6629 13.0082 14.7396 13.1096C14.819 13.2144 14.9226 13.3409 15.0428 13.4878L16.2037 12.5379ZM16.2233 12.5629L16.2233 12.5628L15.0233 13.4628L15.0233 13.4629L16.2233 12.5629ZM16.5196 12.9684C16.4351 12.816 16.3148 12.6737 16.2037 12.5379L15.0428 13.4878C15.1114 13.5716 15.1517 13.621 15.181 13.6592C15.2084 13.695 15.2112 13.7019 15.2078 13.6958L16.5196 12.9684ZM16.4276 14.8136C16.8069 14.2662 16.8426 13.5509 16.5196 12.9684L15.2078 13.6958C15.2539 13.779 15.2488 13.8812 15.1946 13.9594L16.4276 14.8136ZM16.0704 15.2106C16.1945 15.0865 16.3284 14.9569 16.4276 14.8136L15.1946 13.9594C15.1986 13.9536 15.1951 13.9602 15.1643 13.993C15.1314 14.0281 15.0864 14.0733 15.0098 14.1499L16.0704 15.2106ZM15.3351 15.9459L16.0704 15.2106L15.0098 14.1499L14.2744 14.8853L15.3351 15.9459ZM15.335 15.946L15.3351 15.9459L14.2744 14.8853L14.2744 14.8853L15.335 15.946ZM14.9378 16.3033C15.0812 16.2041 15.2109 16.0701 15.335 15.946L14.2744 14.8853C14.1977 14.9619 14.1525 15.007 14.1174 15.04C14.0846 15.0708 14.078 15.0743 14.0837 15.0703L14.9378 16.3033ZM13.093 16.3954C13.6754 16.7182 14.3905 16.6825 14.9378 16.3033L14.0837 15.0703C14.0055 15.1244 13.9034 15.1295 13.8202 15.0834L13.093 16.3954ZM12.6622 16.0793C12.7981 16.1904 12.9405 16.3108 13.093 16.3954L13.8202 15.0834C13.8263 15.0868 13.8194 15.084 13.7836 15.0566C13.7454 15.0273 13.6959 14.987 13.6121 14.9183L12.6622 16.0793ZM12.6871 16.0988L12.6871 16.0988L13.5871 14.8988L13.5871 14.8988L12.6871 16.0988ZM12.2541 15.7565C12.2346 15.7477 12.248 15.7501 12.3283 15.8109C12.4052 15.8691 12.506 15.9514 12.6622 16.0793L13.612 14.9183C13.4651 14.7981 13.3385 14.6943 13.2336 14.6149C13.1321 14.5381 13.0092 14.4514 12.869 14.3883L12.2541 15.7565ZM11.9179 15.8957C11.969 15.7612 12.1228 15.6975 12.2541 15.7565L12.869 14.3883C11.9502 13.9754 10.8733 14.4214 10.5156 15.3631L11.9179 15.8957ZM11.8575 16.4127C11.8776 16.2118 11.8907 16.0823 11.9039 15.9868C11.9177 15.8869 11.9254 15.8758 11.9179 15.8957L10.5156 15.3631C10.461 15.5069 10.4355 15.6551 10.4181 15.7812C10.4 15.9115 10.3839 16.0745 10.365 16.2635L11.8575 16.4127ZM11.851 16.4614L11.851 16.4614L10.3714 16.2148L10.3714 16.2148L11.851 16.4614ZM11.8467 16.4852L11.8467 16.4852L10.3758 16.191L10.3758 16.1911L11.8467 16.4852ZM11.7763 16.9413C11.8244 16.7736 11.84 16.5876 11.8575 16.4128L10.365 16.2635C10.3542 16.3715 10.3477 16.435 10.3414 16.4828C10.3355 16.5275 10.3326 16.5344 10.3345 16.5277L11.7763 16.9413ZM10.407 18.1806C11.062 18.0616 11.5927 17.5812 11.7763 16.9413L10.3345 16.5277C10.3083 16.6191 10.2324 16.6877 10.1389 16.7047L10.407 18.1806ZM9.87307 18.2087C10.0488 18.2087 10.2353 18.2117 10.407 18.1806L10.1389 16.7047C10.1458 16.7035 10.1386 16.7057 10.0936 16.7071C10.0454 16.7087 9.98152 16.7087 9.87307 16.7087V18.2087ZM8.83341 18.2087H9.87307V16.7087H8.83341V18.2087ZM8.29976 18.1806C8.47135 18.2117 8.65782 18.2087 8.83341 18.2087V16.7087C8.72502 16.7087 8.66118 16.7087 8.61301 16.7071C8.56799 16.7057 8.56085 16.7035 8.56774 16.7047L8.29976 18.1806ZM6.93023 16.9412C7.11378 17.5812 7.64464 18.0616 8.29975 18.1806L8.56775 16.7047C8.47416 16.6877 8.39832 16.6191 8.3721 16.5277L6.93023 16.9412ZM6.84911 16.413C6.86658 16.5877 6.88215 16.7735 6.93023 16.9412L8.3721 16.5277C8.37403 16.5344 8.37113 16.5275 8.36522 16.4829C8.35889 16.4351 8.35245 16.3716 8.34167 16.2637L6.84911 16.413ZM6.78876 15.8961C6.78119 15.8762 6.78892 15.8873 6.80273 15.9871C6.81595 16.0826 6.82902 16.2121 6.84911 16.413L8.34167 16.2637C8.32277 16.0747 8.30661 15.9118 8.28858 15.7815C8.27113 15.6554 8.2456 15.5072 8.191 15.3634L6.78876 15.8961ZM6.45257 15.7568C6.58383 15.6979 6.73766 15.7616 6.78876 15.8961L8.191 15.3634C7.8333 14.4218 6.75647 13.9757 5.83768 14.3887L6.45257 15.7568ZM6.0444 16.0797C6.20064 15.9518 6.30145 15.8695 6.37836 15.8113C6.4587 15.7505 6.47201 15.7481 6.45257 15.7568L5.83768 14.3887C5.69744 14.4517 5.57454 14.5385 5.47306 14.6153C5.36815 14.6947 5.24153 14.7985 5.09454 14.9187L6.0444 16.0797ZM6.03797 16.0849L6.03799 16.0848L5.10095 14.9135L5.10093 14.9136L6.03797 16.0849ZM5.6135 16.3958C5.76604 16.3113 5.90848 16.1909 6.04437 16.0797L5.09452 14.9187C5.01063 14.9874 4.96116 15.0277 4.9229 15.0571C4.88714 15.0845 4.88023 15.0873 4.88636 15.0839L5.6135 16.3958ZM3.76874 16.3038C4.31609 16.6829 5.03115 16.7186 5.6135 16.3958L4.88636 15.0839C4.80316 15.13 4.70101 15.1249 4.62282 15.0707L3.76874 16.3038ZM3.37145 15.9464C3.49562 16.0705 3.62537 16.2045 3.76874 16.3038L4.62282 15.0707C4.62858 15.0747 4.62198 15.0712 4.58912 15.0404C4.55397 15.0074 4.50876 14.9624 4.43211 14.8857L3.37145 15.9464ZM2.63623 15.2111L3.37145 15.9464L4.43211 14.8857L3.69689 14.1505L2.63623 15.2111ZM2.27879 14.8139C2.37809 14.9572 2.51207 15.087 2.63623 15.2111L3.69689 14.1505C3.62024 14.0738 3.57516 14.0286 3.54219 13.9935C3.51137 13.9606 3.50789 13.954 3.51188 13.9598L2.27879 14.8139ZM2.18678 12.9691C1.864 13.5514 1.89966 14.2665 2.27879 14.8139L3.51188 13.9598C3.45772 13.8816 3.45262 13.7794 3.49874 13.6962L2.18678 12.9691ZM2.50294 12.5382C2.39174 12.6741 2.27132 12.8165 2.18678 12.9691L3.49874 13.6962C3.49534 13.7024 3.49815 13.6954 3.52555 13.6597C3.55486 13.6214 3.59523 13.572 3.66388 13.488L2.50294 12.5382ZM2.82571 12.1301C2.83445 12.1107 2.83206 12.124 2.77126 12.2043C2.71305 12.2812 2.63075 12.382 2.50294 12.5382L3.66388 13.488C3.78412 13.3411 3.88786 13.2145 3.96725 13.1096C4.04404 13.0082 4.13082 12.8853 4.19384 12.7451L2.82571 12.1301ZM2.68645 11.7939C2.82099 11.845 2.88472 11.9988 2.82571 12.1301L4.19384 12.7451C4.60688 11.8262 4.16078 10.7493 3.21899 10.3916L2.68645 11.7939ZM2.16973 11.7335C2.37053 11.7536 2.49997 11.7667 2.59549 11.7799C2.69527 11.7937 2.70636 11.8014 2.68645 11.7939L3.21899 10.3916C3.07529 10.337 2.92707 10.3115 2.80104 10.2941C2.67075 10.276 2.5079 10.2599 2.31898 10.241L2.16973 11.7335ZM1.64167 11.6525C1.80927 11.7005 1.99506 11.7161 2.16973 11.7335L2.31898 10.241C2.21116 10.2302 2.14766 10.2238 2.0999 10.2174C2.05526 10.2115 2.04838 10.2086 2.05512 10.2106L1.64167 11.6525ZM0.402163 10.2828C0.521099 10.938 1.00157 11.4689 1.64168 11.6525L2.05512 10.2106C1.96367 10.1843 1.89503 10.1085 1.87804 10.0149L0.402163 10.2828ZM0.374023 9.74932C0.374023 9.92485 0.371024 10.1113 0.402163 10.2828L1.87804 10.0149C1.87929 10.0218 1.87709 10.0147 1.87565 9.96966C1.87411 9.9215 1.87402 9.85768 1.87402 9.74932H0.374023ZM0.374023 8.70954V9.74932H1.87402V8.70954H0.374023ZM0.402197 8.17573C0.37102 8.34737 0.374023 8.5339 0.374023 8.70954H1.87402C1.87402 8.60111 1.87411 8.53725 1.87565 8.48907C1.87709 8.44404 1.8793 8.4369 1.87805 8.4438L0.402197 8.17573ZM1.6415 6.80631C1.00154 6.98988 0.521178 7.52068 0.402197 8.17573L1.87805 8.4438C1.89505 8.35022 1.96367 8.27439 2.05509 8.24817L1.6415 6.80631ZM2.16986 6.72516C1.99509 6.74264 1.80918 6.75821 1.6415 6.80631L2.05509 8.24817C2.04835 8.2501 2.05523 8.24719 2.0999 8.24128C2.14769 8.23495 2.21122 8.22851 2.31911 8.21772L2.16986 6.72516ZM2.68689 6.66479C2.70681 6.65722 2.69571 6.66495 2.59588 6.67877C2.5003 6.69199 2.37079 6.70507 2.16986 6.72516L2.31912 8.21772C2.50815 8.19882 2.67109 8.18265 2.80146 8.16461C2.92756 8.14716 3.07587 8.12162 3.21964 8.067L2.68689 6.66479ZM2.82613 6.32863C2.8851 6.45988 2.82139 6.61369 2.68688 6.66479L3.21965 8.06699C4.16118 7.70926 4.60716 6.63257 4.19435 5.71384L2.82613 6.32863ZM2.50315 5.92026C2.63104 6.07657 2.7134 6.17743 2.77164 6.25438C2.83249 6.33476 2.83487 6.34808 2.82613 6.32863L4.19435 5.71384C4.13131 5.57355 4.04449 5.4506 3.96766 5.34909C3.88822 5.24414 3.78441 5.11747 3.66409 4.97041L2.50315 5.92026ZM2.53646 5.95828L2.53647 5.95829L3.63077 4.93238L3.63077 4.93237L2.53646 5.95828ZM2.18677 5.48904C2.27135 5.6417 2.39186 5.78424 2.50315 5.92026L3.66408 4.9704C3.59538 4.88643 3.55499 4.83692 3.52565 4.79863C3.49823 4.76284 3.49542 4.75591 3.49882 4.76205L2.18677 5.48904ZM2.27876 3.64462C1.8998 4.19189 1.86414 4.90678 2.18677 5.48905L3.49882 4.76205C3.45273 4.67887 3.45782 4.57674 3.51196 4.49856L2.27876 3.64462ZM2.63644 3.24707C2.51219 3.37131 2.37811 3.50114 2.27876 3.64462L3.51196 4.49856C3.50797 4.50433 3.51145 4.49771 3.54229 4.46484C3.57528 4.42967 3.6204 4.38443 3.6971 4.30773L2.63644 3.24707ZM3.37156 2.51194L2.63644 3.24707L3.6971 4.30773L4.43222 3.5726L3.37156 2.51194ZM3.37157 2.51193L3.37156 2.51194L4.43222 3.5726L4.43223 3.57259L3.37157 2.51193ZM3.76881 2.15451C3.62546 2.2538 3.49572 2.38778 3.37157 2.51193L4.43223 3.57259C4.50887 3.49595 4.55408 3.45087 4.58922 3.4179C4.62207 3.38709 4.62868 3.38361 4.62292 3.3876L3.76881 2.15451ZM5.61363 2.0625C5.03126 1.73971 4.31617 1.77538 3.76881 2.15451L4.62292 3.3876C4.70111 3.33344 4.80326 3.32834 4.88646 3.37445L5.61363 2.0625ZM6.04455 2.37869C5.90861 2.26747 5.76616 2.14704 5.61363 2.0625L4.88646 3.37445C4.88032 3.37105 4.88724 3.37386 4.92302 3.40127C4.96129 3.43059 5.01078 3.47097 5.09469 3.53963L6.04455 2.37869ZM6.45258 2.70141C6.47201 2.71015 6.45871 2.70776 6.37838 2.64696C6.3015 2.58876 6.20073 2.50647 6.04455 2.37869L5.09469 3.53963C5.24163 3.65985 5.36819 3.76356 5.47305 3.84294C5.57446 3.9197 5.69729 4.00646 5.83743 4.06947L6.45258 2.70141ZM6.78882 2.56213C6.73773 2.6967 6.58385 2.76044 6.45258 2.70141L5.83743 4.06947C6.75638 4.48267 7.83355 4.03649 8.19116 3.09453L6.78882 2.56213ZM6.84912 2.04562C6.82905 2.24634 6.81599 2.37573 6.80278 2.47121C6.78898 2.57095 6.78126 2.58204 6.78882 2.56213L8.19116 3.09452C8.2457 2.95088 8.2712 2.80272 8.28863 2.67674C8.30665 2.5465 8.3228 2.38371 8.34168 2.19487L6.84912 2.04562ZM6.93017 1.51778C6.88214 1.6853 6.86658 1.87102 6.84912 2.04562L8.34168 2.19487C8.35246 2.08709 8.35889 2.02362 8.36521 1.97588C8.37112 1.93125 8.37402 1.92438 8.37209 1.93111L6.93017 1.51778ZM8.29997 0.278117C7.64468 0.397022 7.11369 0.877569 6.93017 1.51778L8.37209 1.93111C8.39831 1.83965 8.47417 1.771 8.56778 1.75402L8.29997 0.278117ZM8.83326 0.25C8.65779 0.25 8.47145 0.247003 8.29997 0.278117L8.56778 1.75402C8.56089 1.75527 8.56802 1.75306 8.61301 1.75163C8.66114 1.75009 8.72494 1.75 8.83326 1.75V0.25ZM9.87322 0.25H8.83326V1.75H9.87322V0.25ZM10.4068 0.278147C10.2352 0.247 10.0488 0.25 9.87322 0.25V1.75C9.9816 1.75 10.0454 1.75009 10.0936 1.75163C10.1386 1.75307 10.1457 1.75527 10.1388 1.75402L10.4068 0.278147ZM11.7764 1.51761C11.5928 0.87754 11.062 0.397094 10.4068 0.278148L10.1388 1.75402C10.2324 1.77101 10.3083 1.83965 10.3345 1.93109L11.7764 1.51761ZM11.8575 2.0457C11.84 1.87104 11.8245 1.68522 11.7764 1.51761L10.3345 1.93109C10.3326 1.92435 10.3355 1.93123 10.3414 1.97587C10.3477 2.02364 10.3541 2.08714 10.3649 2.19497L11.8575 2.0457ZM11.895 9.22935C11.895 10.6331 10.7571 11.7711 9.35328 11.7711V13.2711C11.5855 13.2711 13.395 11.4615 13.395 9.22935H11.895ZM9.35328 6.6876C10.7571 6.6876 11.895 7.82558 11.895 9.22935H13.395C13.395 6.99715 11.5855 5.1876 9.35328 5.1876V6.6876ZM6.81154 9.22935C6.81154 7.82558 7.94952 6.6876 9.35328 6.6876V5.1876C7.12109 5.1876 5.31154 6.99715 5.31154 9.22935H6.81154ZM9.35328 11.7711C7.94952 11.7711 6.81154 10.6331 6.81154 9.22935H5.31154C5.31154 11.4615 7.12109 13.2711 9.35328 13.2711V11.7711Z" fill="#003054"/>
</svg>
