<svg width="147" height="128" viewBox="0 0 147 128" fill="none" xmlns="http://www.w3.org/2000/svg">
<path d="M77.2079 32.0353L77.425 32.1L77.4353 32.0883C78.3747 32.2486 79.3022 31.6835 79.5783 30.7517C82.06 22.413 89.8787 16.5874 98.5896 16.5874C99.642 16.5874 100.495 15.7339 100.495 14.6816C100.495 13.6293 99.6419 12.7758 98.5896 12.7758C87.8492 12.7758 78.8237 19.9269 75.9257 29.6654C75.6249 30.6744 76.1997 31.7346 77.2079 32.0353Z" fill="#FC743F" stroke="#F9FFF9" stroke-width="0.706186"/>
<path d="M120.326 90.7635H111.01C110.153 90.7635 109.457 90.0682 109.457 89.2108C109.457 88.3535 110.153 87.6581 111.01 87.6581H120.326C133.168 87.6581 143.616 77.2096 143.616 64.3679C143.616 51.5261 133.168 41.0776 120.326 41.0776H120.102C119.652 41.0776 119.223 40.8824 118.928 40.5419C118.633 40.2014 118.5 39.75 118.565 39.3042C118.703 38.3371 118.773 37.3656 118.773 36.4196C118.773 25.2902 109.718 16.2345 98.5882 16.2345C94.2584 16.2345 90.1294 17.5876 86.6468 20.1484C85.8815 20.7107 84.7947 20.4611 84.3522 19.6194C74.4893 0.838592 48.7287 -1.68347 35.3731 14.6542C29.7469 21.5369 27.5363 30.4904 29.3077 39.2167C29.5029 40.1804 28.7653 41.0788 27.786 41.0788H27.1639C14.3221 41.0788 3.87359 51.5273 3.87359 64.3691C3.87359 77.2108 14.3221 87.6593 27.1639 87.6593H36.4798C37.3371 87.6593 38.0325 88.3547 38.0325 89.212C38.0325 90.0693 37.3372 90.7647 36.4798 90.7647H27.1639C12.6095 90.7647 0.768066 78.9233 0.768066 64.3689C0.768066 50.2229 11.954 38.6398 25.945 38.001C24.6307 28.9476 27.1439 19.8156 32.9686 12.6889C47.2677 -4.80427 74.6708 -2.84351 86.2548 16.6627C89.9503 14.3458 94.179 13.1304 98.5877 13.1304C112.072 13.1304 122.756 24.607 121.821 38.0155C135.684 38.7929 146.721 50.3149 146.721 64.3678C146.721 78.9233 134.88 90.7636 120.325 90.7636L120.326 90.7635Z" fill="#FC743F"/>
<path d="M34.3659 88.3342C34.3659 109.933 51.9377 127.505 73.5366 127.505C95.1358 127.505 112.707 109.933 112.707 88.3342C112.707 66.735 95.1358 49.1635 73.5366 49.1635C51.9374 49.1635 34.3659 66.7353 34.3659 88.3342ZM38.1782 88.3342C38.1782 68.8382 54.0403 52.9758 73.5366 52.9758C93.0326 52.9758 108.895 68.8379 108.895 88.3342C108.895 107.83 93.0326 123.693 73.5366 123.693C54.0406 123.693 38.1782 107.83 38.1782 88.3342Z" fill="#FC743F" stroke="#F9FFF9" stroke-width="0.706186"/>
<path d="M72.7565 103.96C72.7565 104.783 73.4237 105.45 74.2464 105.45C75.0689 105.45 75.7362 104.784 75.7362 103.96V74.4048C75.7362 73.5822 75.069 72.915 74.2464 72.915C73.4237 72.915 72.7565 73.5822 72.7565 74.4048V103.96Z" fill="#FC743F" stroke="#FC743F" stroke-width="0.706186"/>
<path d="M74.2462 76.5149L66.2061 84.5551L74.2462 76.5149ZM74.2462 76.5149L82.2866 84.5553C82.5771 84.8458 82.9596 84.9916 83.34 84.9916L74.2462 76.5149ZM64.0988 84.5553C64.6806 85.1371 65.6244 85.1375 66.2058 84.5553L73.1924 73.3547L64.0988 82.4483C63.5168 83.0303 63.5168 83.9733 64.0988 84.5553ZM75.2997 73.3544C74.7179 72.7726 73.7741 72.7722 73.1927 73.3544L83.3401 84.9916C83.72 84.9916 84.1029 84.847 84.394 84.5548C84.9756 83.9728 84.9754 83.0302 84.3935 82.4483L75.2997 73.3544Z" fill="#FC743F" stroke="#FC743F" stroke-width="0.706186"/>
</svg>
